<?xml version="1.0" encoding="utf-8" standalone="no"?>
<!DOCTYPE svg PUBLIC "-//W3C//DTD SVG 1.1//EN" "http://www.w3.org/Graphics/SVG/1.1/DTD/svg11.dtd">
<svg width="1920" height="1080" version="1.1" xmlns:xlink="http://www.w3.org/1999/xlink" xmlns="http://www.w3.org/2000/svg">
  <defs>
    <clipPath id="clipPath1">
      <rect x="0" y="0" width="1920" height="1080" />
    </clipPath>
  </defs>
  <g clip-path="url(#clipPath1)">
    <rect x="1885.988" y="34.106" width="5" height="1017.341" style="fill:rgb(0,0,139);stroke:none;" />
    <polyline points="1885.988,1030.6102 1889.988,1030.6102" style="fill:none;stroke:black;stroke-width:1" shape-rendering="crispEdges" />
    <polyline points="1885.988,1010.2734 1889.988,1010.2734" style="fill:none;stroke:black;stroke-width:1" shape-rendering="crispEdges" />
    <polyline points="1885.988,989.9365 1889.988,989.9365" style="fill:none;stroke:black;stroke-width:1" shape-rendering="crispEdges" />
    <polyline points="1885.988,969.5997 1889.988,969.5997" style="fill:none;stroke:black;stroke-width:1" shape-rendering="crispEdges" />
    <polyline points="1885.988,928.9261 1889.988,928.9261" style="fill:none;stroke:black;stroke-width:1" shape-rendering="crispEdges" />
    <polyline points="1885.988,908.5893 1889.988,908.5893" style="fill:none;stroke:black;stroke-width:1" shape-rendering="crispEdges" />
    <polyline points="1885.988,888.2524 1889.988,888.2524" style="fill:none;stroke:black;stroke-width:1" shape-rendering="crispEdges" />
    <polyline points="1885.988,867.9156 1889.988,867.9156" style="fill:none;stroke:black;stroke-width:1" shape-rendering="crispEdges" />
    <polyline points="1885.988,827.242 1889.988,827.242" style="fill:none;stroke:black;stroke-width:1" shape-rendering="crispEdges" />
    <polyline points="1885.988,806.9052 1889.988,806.9052" style="fill:none;stroke:black;stroke-width:1" shape-rendering="crispEdges" />
    <polyline points="1885.988,786.5683 1889.988,786.5683" style="fill:none;stroke:black;stroke-width:1" shape-rendering="crispEdges" />
    <polyline points="1885.988,766.2315 1889.988,766.2315" style="fill:none;stroke:black;stroke-width:1" shape-rendering="crispEdges" />
    <polyline points="1885.988,725.5579 1889.988,725.5579" style="fill:none;stroke:black;stroke-width:1" shape-rendering="crispEdges" />
    <polyline points="1885.988,705.2211 1889.988,705.2211" style="fill:none;stroke:black;stroke-width:1" shape-rendering="crispEdges" />
    <polyline points="1885.988,684.8842 1889.988,684.8842" style="fill:none;stroke:black;stroke-width:1" shape-rendering="crispEdges" />
    <polyline points="1885.988,664.5474 1889.988,664.5474" style="fill:none;stroke:black;stroke-width:1" shape-rendering="crispEdges" />
    <polyline points="1885.988,623.8738 1889.988,623.8738" style="fill:none;stroke:black;stroke-width:1" shape-rendering="crispEdges" />
    <polyline points="1885.988,603.537 1889.988,603.537" style="fill:none;stroke:black;stroke-width:1" shape-rendering="crispEdges" />
    <polyline points="1885.988,583.2001 1889.988,583.2001" style="fill:none;stroke:black;stroke-width:1" shape-rendering="crispEdges" />
    <polyline points="1885.988,562.8633 1889.988,562.8633" style="fill:none;stroke:black;stroke-width:1" shape-rendering="crispEdges" />
    <polyline points="1885.988,522.1897 1889.988,522.1897" style="fill:none;stroke:black;stroke-width:1" shape-rendering="crispEdges" />
    <polyline points="1885.988,501.8529 1889.988,501.8529" style="fill:none;stroke:black;stroke-width:1" shape-rendering="crispEdges" />
    <polyline points="1885.988,481.516 1889.988,481.516" style="fill:none;stroke:black;stroke-width:1" shape-rendering="crispEdges" />
    <polyline points="1885.988,461.1792 1889.988,461.1792" style="fill:none;stroke:black;stroke-width:1" shape-rendering="crispEdges" />
    <polyline points="1885.988,420.5056 1889.988,420.5056" style="fill:none;stroke:black;stroke-width:1" shape-rendering="crispEdges" />
    <polyline points="1885.988,400.1688 1889.988,400.1688" style="fill:none;stroke:black;stroke-width:1" shape-rendering="crispEdges" />
    <polyline points="1885.988,379.8319 1889.988,379.8319" style="fill:none;stroke:black;stroke-width:1" shape-rendering="crispEdges" />
    <polyline points="1885.988,359.4951 1889.988,359.4951" style="fill:none;stroke:black;stroke-width:1" shape-rendering="crispEdges" />
    <polyline points="1885.988,318.8215 1889.988,318.8215" style="fill:none;stroke:black;stroke-width:1" shape-rendering="crispEdges" />
    <polyline points="1885.988,298.4847 1889.988,298.4847" style="fill:none;stroke:black;stroke-width:1" shape-rendering="crispEdges" />
    <polyline points="1885.988,278.1478 1889.988,278.1478" style="fill:none;stroke:black;stroke-width:1" shape-rendering="crispEdges" />
    <polyline points="1885.988,257.811 1889.988,257.811" style="fill:none;stroke:black;stroke-width:1" shape-rendering="crispEdges" />
    <polyline points="1885.988,217.1374 1889.988,217.1374" style="fill:none;stroke:black;stroke-width:1" shape-rendering="crispEdges" />
    <polyline points="1885.988,196.8006 1889.988,196.8006" style="fill:none;stroke:black;stroke-width:1" shape-rendering="crispEdges" />
    <polyline points="1885.988,176.4637 1889.988,176.4637" style="fill:none;stroke:black;stroke-width:1" shape-rendering="crispEdges" />
    <polyline points="1885.988,156.1269 1889.988,156.1269" style="fill:none;stroke:black;stroke-width:1" shape-rendering="crispEdges" />
    <polyline points="1885.988,115.4533 1889.988,115.4533" style="fill:none;stroke:black;stroke-width:1" shape-rendering="crispEdges" />
    <polyline points="1885.988,95.1165 1889.988,95.1165" style="fill:none;stroke:black;stroke-width:1" shape-rendering="crispEdges" />
    <polyline points="1885.988,74.7796 1889.988,74.7796" style="fill:none;stroke:black;stroke-width:1" shape-rendering="crispEdges" />
    <polyline points="1885.988,54.4428 1889.988,54.4428" style="fill:none;stroke:black;stroke-width:1" shape-rendering="crispEdges" />
    <polyline points="52.3318,1050.947 52.3318,1054.947" style="fill:none;stroke:black;stroke-width:1" shape-rendering="crispEdges" />
    <polyline points="70.6515,1050.947 70.6515,1054.947" style="fill:none;stroke:black;stroke-width:1" shape-rendering="crispEdges" />
    <polyline points="88.9713,1050.947 88.9713,1054.947" style="fill:none;stroke:black;stroke-width:1" shape-rendering="crispEdges" />
    <polyline points="107.291,1050.947 107.291,1054.947" style="fill:none;stroke:black;stroke-width:1" shape-rendering="crispEdges" />
    <polyline points="143.9306,1050.947 143.9306,1054.947" style="fill:none;stroke:black;stroke-width:1" shape-rendering="crispEdges" />
    <polyline points="162.2503,1050.947 162.2503,1054.947" style="fill:none;stroke:black;stroke-width:1" shape-rendering="crispEdges" />
    <polyline points="180.5701,1050.947 180.5701,1054.947" style="fill:none;stroke:black;stroke-width:1" shape-rendering="crispEdges" />
    <polyline points="198.8898,1050.947 198.8898,1054.947" style="fill:none;stroke:black;stroke-width:1" shape-rendering="crispEdges" />
    <polyline points="235.5294,1050.947 235.5294,1054.947" style="fill:none;stroke:black;stroke-width:1" shape-rendering="crispEdges" />
    <polyline points="253.8491,1050.947 253.8491,1054.947" style="fill:none;stroke:black;stroke-width:1" shape-rendering="crispEdges" />
    <polyline points="272.1689,1050.947 272.1689,1054.947" style="fill:none;stroke:black;stroke-width:1" shape-rendering="crispEdges" />
    <polyline points="290.4886,1050.947 290.4886,1054.947" style="fill:none;stroke:black;stroke-width:1" shape-rendering="crispEdges" />
    <polyline points="327.1282,1050.947 327.1282,1054.947" style="fill:none;stroke:black;stroke-width:1" shape-rendering="crispEdges" />
    <polyline points="345.4479,1050.947 345.4479,1054.947" style="fill:none;stroke:black;stroke-width:1" shape-rendering="crispEdges" />
    <polyline points="363.7677,1050.947 363.7677,1054.947" style="fill:none;stroke:black;stroke-width:1" shape-rendering="crispEdges" />
    <polyline points="382.0874,1050.947 382.0874,1054.947" style="fill:none;stroke:black;stroke-width:1" shape-rendering="crispEdges" />
    <polyline points="418.727,1050.947 418.727,1054.947" style="fill:none;stroke:black;stroke-width:1" shape-rendering="crispEdges" />
    <polyline points="437.0467,1050.947 437.0467,1054.947" style="fill:none;stroke:black;stroke-width:1" shape-rendering="crispEdges" />
    <polyline points="455.3665,1050.947 455.3665,1054.947" style="fill:none;stroke:black;stroke-width:1" shape-rendering="crispEdges" />
    <polyline points="473.6862,1050.947 473.6862,1054.947" style="fill:none;stroke:black;stroke-width:1" shape-rendering="crispEdges" />
    <polyline points="510.3258,1050.947 510.3258,1054.947" style="fill:none;stroke:black;stroke-width:1" shape-rendering="crispEdges" />
    <polyline points="528.6455,1050.947 528.6455,1054.947" style="fill:none;stroke:black;stroke-width:1" shape-rendering="crispEdges" />
    <polyline points="546.9653,1050.947 546.9653,1054.947" style="fill:none;stroke:black;stroke-width:1" shape-rendering="crispEdges" />
    <polyline points="565.285,1050.947 565.285,1054.947" style="fill:none;stroke:black;stroke-width:1" shape-rendering="crispEdges" />
    <polyline points="601.9246,1050.947 601.9246,1054.947" style="fill:none;stroke:black;stroke-width:1" shape-rendering="crispEdges" />
    <polyline points="620.2443,1050.947 620.2443,1054.947" style="fill:none;stroke:black;stroke-width:1" shape-rendering="crispEdges" />
    <polyline points="638.5641,1050.947 638.5641,1054.947" style="fill:none;stroke:black;stroke-width:1" shape-rendering="crispEdges" />
    <polyline points="656.8838,1050.947 656.8838,1054.947" style="fill:none;stroke:black;stroke-width:1" shape-rendering="crispEdges" />
    <polyline points="693.5234,1050.947 693.5234,1054.947" style="fill:none;stroke:black;stroke-width:1" shape-rendering="crispEdges" />
    <polyline points="711.8431,1050.947 711.8431,1054.947" style="fill:none;stroke:black;stroke-width:1" shape-rendering="crispEdges" />
    <polyline points="730.1629,1050.947 730.1629,1054.947" style="fill:none;stroke:black;stroke-width:1" shape-rendering="crispEdges" />
    <polyline points="748.4826,1050.947 748.4826,1054.947" style="fill:none;stroke:black;stroke-width:1" shape-rendering="crispEdges" />
    <polyline points="785.1222,1050.947 785.1222,1054.947" style="fill:none;stroke:black;stroke-width:1" shape-rendering="crispEdges" />
    <polyline points="803.4419,1050.947 803.4419,1054.947" style="fill:none;stroke:black;stroke-width:1" shape-rendering="crispEdges" />
    <polyline points="821.7617,1050.947 821.7617,1054.947" style="fill:none;stroke:black;stroke-width:1" shape-rendering="crispEdges" />
    <polyline points="840.0814,1050.947 840.0814,1054.947" style="fill:none;stroke:black;stroke-width:1" shape-rendering="crispEdges" />
    <polyline points="876.721,1050.947 876.721,1054.947" style="fill:none;stroke:black;stroke-width:1" shape-rendering="crispEdges" />
    <polyline points="895.0407,1050.947 895.0407,1054.947" style="fill:none;stroke:black;stroke-width:1" shape-rendering="crispEdges" />
    <polyline points="913.3605,1050.947 913.3605,1054.947" style="fill:none;stroke:black;stroke-width:1" shape-rendering="crispEdges" />
    <polyline points="931.6802,1050.947 931.6802,1054.947" style="fill:none;stroke:black;stroke-width:1" shape-rendering="crispEdges" />
    <polyline points="968.3198,1050.947 968.3198,1054.947" style="fill:none;stroke:black;stroke-width:1" shape-rendering="crispEdges" />
    <polyline points="986.6395,1050.947 986.6395,1054.947" style="fill:none;stroke:black;stroke-width:1" shape-rendering="crispEdges" />
    <polyline points="1004.9593,1050.947 1004.9593,1054.947" style="fill:none;stroke:black;stroke-width:1" shape-rendering="crispEdges" />
    <polyline points="1023.279,1050.947 1023.279,1054.947" style="fill:none;stroke:black;stroke-width:1" shape-rendering="crispEdges" />
    <polyline points="1059.9186,1050.947 1059.9186,1054.947" style="fill:none;stroke:black;stroke-width:1" shape-rendering="crispEdges" />
    <polyline points="1078.2383,1050.947 1078.2383,1054.947" style="fill:none;stroke:black;stroke-width:1" shape-rendering="crispEdges" />
    <polyline points="1096.5581,1050.947 1096.5581,1054.947" style="fill:none;stroke:black;stroke-width:1" shape-rendering="crispEdges" />
    <polyline points="1114.8778,1050.947 1114.8778,1054.947" style="fill:none;stroke:black;stroke-width:1" shape-rendering="crispEdges" />
    <polyline points="1151.5174,1050.947 1151.5174,1054.947" style="fill:none;stroke:black;stroke-width:1" shape-rendering="crispEdges" />
    <polyline points="1169.8371,1050.947 1169.8371,1054.947" style="fill:none;stroke:black;stroke-width:1" shape-rendering="crispEdges" />
    <polyline points="1188.1569,1050.947 1188.1569,1054.947" style="fill:none;stroke:black;stroke-width:1" shape-rendering="crispEdges" />
    <polyline points="1206.4766,1050.947 1206.4766,1054.947" style="fill:none;stroke:black;stroke-width:1" shape-rendering="crispEdges" />
    <polyline points="1243.1162,1050.947 1243.1162,1054.947" style="fill:none;stroke:black;stroke-width:1" shape-rendering="crispEdges" />
    <polyline points="1261.4359,1050.947 1261.4359,1054.947" style="fill:none;stroke:black;stroke-width:1" shape-rendering="crispEdges" />
    <polyline points="1279.7557,1050.947 1279.7557,1054.947" style="fill:none;stroke:black;stroke-width:1" shape-rendering="crispEdges" />
    <polyline points="1298.0754,1050.947 1298.0754,1054.947" style="fill:none;stroke:black;stroke-width:1" shape-rendering="crispEdges" />
    <polyline points="1334.715,1050.947 1334.715,1054.947" style="fill:none;stroke:black;stroke-width:1" shape-rendering="crispEdges" />
    <polyline points="1353.0347,1050.947 1353.0347,1054.947" style="fill:none;stroke:black;stroke-width:1" shape-rendering="crispEdges" />
    <polyline points="1371.3545,1050.947 1371.3545,1054.947" style="fill:none;stroke:black;stroke-width:1" shape-rendering="crispEdges" />
    <polyline points="1389.6742,1050.947 1389.6742,1054.947" style="fill:none;stroke:black;stroke-width:1" shape-rendering="crispEdges" />
    <polyline points="1426.3138,1050.947 1426.3138,1054.947" style="fill:none;stroke:black;stroke-width:1" shape-rendering="crispEdges" />
    <polyline points="1444.6335,1050.947 1444.6335,1054.947" style="fill:none;stroke:black;stroke-width:1" shape-rendering="crispEdges" />
    <polyline points="1462.9533,1050.947 1462.9533,1054.947" style="fill:none;stroke:black;stroke-width:1" shape-rendering="crispEdges" />
    <polyline points="1481.273,1050.947 1481.273,1054.947" style="fill:none;stroke:black;stroke-width:1" shape-rendering="crispEdges" />
    <polyline points="1517.9126,1050.947 1517.9126,1054.947" style="fill:none;stroke:black;stroke-width:1" shape-rendering="crispEdges" />
    <polyline points="1536.2323,1050.947 1536.2323,1054.947" style="fill:none;stroke:black;stroke-width:1" shape-rendering="crispEdges" />
    <polyline points="1554.5521,1050.947 1554.5521,1054.947" style="fill:none;stroke:black;stroke-width:1" shape-rendering="crispEdges" />
    <polyline points="1572.8718,1050.947 1572.8718,1054.947" style="fill:none;stroke:black;stroke-width:1" shape-rendering="crispEdges" />
    <polyline points="1609.5114,1050.947 1609.5114,1054.947" style="fill:none;stroke:black;stroke-width:1" shape-rendering="crispEdges" />
    <polyline points="1627.8311,1050.947 1627.8311,1054.947" style="fill:none;stroke:black;stroke-width:1" shape-rendering="crispEdges" />
    <polyline points="1646.1509,1050.947 1646.1509,1054.947" style="fill:none;stroke:black;stroke-width:1" shape-rendering="crispEdges" />
    <polyline points="1664.4706,1050.947 1664.4706,1054.947" style="fill:none;stroke:black;stroke-width:1" shape-rendering="crispEdges" />
    <polyline points="1701.1102,1050.947 1701.1102,1054.947" style="fill:none;stroke:black;stroke-width:1" shape-rendering="crispEdges" />
    <polyline points="1719.4299,1050.947 1719.4299,1054.947" style="fill:none;stroke:black;stroke-width:1" shape-rendering="crispEdges" />
    <polyline points="1737.7497,1050.947 1737.7497,1054.947" style="fill:none;stroke:black;stroke-width:1" shape-rendering="crispEdges" />
    <polyline points="1756.0694,1050.947 1756.0694,1054.947" style="fill:none;stroke:black;stroke-width:1" shape-rendering="crispEdges" />
    <polyline points="1792.709,1050.947 1792.709,1054.947" style="fill:none;stroke:black;stroke-width:1" shape-rendering="crispEdges" />
    <polyline points="1811.0287,1050.947 1811.0287,1054.947" style="fill:none;stroke:black;stroke-width:1" shape-rendering="crispEdges" />
    <polyline points="1829.3485,1050.947 1829.3485,1054.947" style="fill:none;stroke:black;stroke-width:1" shape-rendering="crispEdges" />
    <polyline points="1847.6682,1050.947 1847.6682,1054.947" style="fill:none;stroke:black;stroke-width:1" shape-rendering="crispEdges" />
    <polyline points="34.012,1030.6102 30.012,1030.6102" style="fill:none;stroke:black;stroke-width:1" shape-rendering="crispEdges" />
    <polyline points="34.012,1010.2734 30.012,1010.2734" style="fill:none;stroke:black;stroke-width:1" shape-rendering="crispEdges" />
    <polyline points="34.012,989.9365 30.012,989.9365" style="fill:none;stroke:black;stroke-width:1" shape-rendering="crispEdges" />
    <polyline points="34.012,969.5997 30.012,969.5997" style="fill:none;stroke:black;stroke-width:1" shape-rendering="crispEdges" />
    <polyline points="34.012,928.9261 30.012,928.9261" style="fill:none;stroke:black;stroke-width:1" shape-rendering="crispEdges" />
    <polyline points="34.012,908.5893 30.012,908.5893" style="fill:none;stroke:black;stroke-width:1" shape-rendering="crispEdges" />
    <polyline points="34.012,888.2524 30.012,888.2524" style="fill:none;stroke:black;stroke-width:1" shape-rendering="crispEdges" />
    <polyline points="34.012,867.9156 30.012,867.9156" style="fill:none;stroke:black;stroke-width:1" shape-rendering="crispEdges" />
    <polyline points="34.012,827.242 30.012,827.242" style="fill:none;stroke:black;stroke-width:1" shape-rendering="crispEdges" />
    <polyline points="34.012,806.9052 30.012,806.9052" style="fill:none;stroke:black;stroke-width:1" shape-rendering="crispEdges" />
    <polyline points="34.012,786.5683 30.012,786.5683" style="fill:none;stroke:black;stroke-width:1" shape-rendering="crispEdges" />
    <polyline points="34.012,766.2315 30.012,766.2315" style="fill:none;stroke:black;stroke-width:1" shape-rendering="crispEdges" />
    <polyline points="34.012,725.5579 30.012,725.5579" style="fill:none;stroke:black;stroke-width:1" shape-rendering="crispEdges" />
    <polyline points="34.012,705.2211 30.012,705.2211" style="fill:none;stroke:black;stroke-width:1" shape-rendering="crispEdges" />
    <polyline points="34.012,684.8842 30.012,684.8842" style="fill:none;stroke:black;stroke-width:1" shape-rendering="crispEdges" />
    <polyline points="34.012,664.5474 30.012,664.5474" style="fill:none;stroke:black;stroke-width:1" shape-rendering="crispEdges" />
    <polyline points="34.012,623.8738 30.012,623.8738" style="fill:none;stroke:black;stroke-width:1" shape-rendering="crispEdges" />
    <polyline points="34.012,603.537 30.012,603.537" style="fill:none;stroke:black;stroke-width:1" shape-rendering="crispEdges" />
    <polyline points="34.012,583.2001 30.012,583.2001" style="fill:none;stroke:black;stroke-width:1" shape-rendering="crispEdges" />
    <polyline points="34.012,562.8633 30.012,562.8633" style="fill:none;stroke:black;stroke-width:1" shape-rendering="crispEdges" />
    <polyline points="34.012,522.1897 30.012,522.1897" style="fill:none;stroke:black;stroke-width:1" shape-rendering="crispEdges" />
    <polyline points="34.012,501.8529 30.012,501.8529" style="fill:none;stroke:black;stroke-width:1" shape-rendering="crispEdges" />
    <polyline points="34.012,481.516 30.012,481.516" style="fill:none;stroke:black;stroke-width:1" shape-rendering="crispEdges" />
    <polyline points="34.012,461.1792 30.012,461.1792" style="fill:none;stroke:black;stroke-width:1" shape-rendering="crispEdges" />
    <polyline points="34.012,420.5056 30.012,420.5056" style="fill:none;stroke:black;stroke-width:1" shape-rendering="crispEdges" />
    <polyline points="34.012,400.1688 30.012,400.1688" style="fill:none;stroke:black;stroke-width:1" shape-rendering="crispEdges" />
    <polyline points="34.012,379.8319 30.012,379.8319" style="fill:none;stroke:black;stroke-width:1" shape-rendering="crispEdges" />
    <polyline points="34.012,359.4951 30.012,359.4951" style="fill:none;stroke:black;stroke-width:1" shape-rendering="crispEdges" />
    <polyline points="34.012,318.8215 30.012,318.8215" style="fill:none;stroke:black;stroke-width:1" shape-rendering="crispEdges" />
    <polyline points="34.012,298.4847 30.012,298.4847" style="fill:none;stroke:black;stroke-width:1" shape-rendering="crispEdges" />
    <polyline points="34.012,278.1478 30.012,278.1478" style="fill:none;stroke:black;stroke-width:1" shape-rendering="crispEdges" />
    <polyline points="34.012,257.811 30.012,257.811" style="fill:none;stroke:black;stroke-width:1" shape-rendering="crispEdges" />
    <polyline points="34.012,217.1374 30.012,217.1374" style="fill:none;stroke:black;stroke-width:1" shape-rendering="crispEdges" />
    <polyline points="34.012,196.8006 30.012,196.8006" style="fill:none;stroke:black;stroke-width:1" shape-rendering="crispEdges" />
    <polyline points="34.012,176.4637 30.012,176.4637" style="fill:none;stroke:black;stroke-width:1" shape-rendering="crispEdges" />
    <polyline points="34.012,156.1269 30.012,156.1269" style="fill:none;stroke:black;stroke-width:1" shape-rendering="crispEdges" />
    <polyline points="34.012,115.4533 30.012,115.4533" style="fill:none;stroke:black;stroke-width:1" shape-rendering="crispEdges" />
    <polyline points="34.012,95.1165 30.012,95.1165" style="fill:none;stroke:black;stroke-width:1" shape-rendering="crispEdges" />
    <polyline points="34.012,74.7796 30.012,74.7796" style="fill:none;stroke:black;stroke-width:1" shape-rendering="crispEdges" />
    <polyline points="34.012,54.4428 30.012,54.4428" style="fill:none;stroke:black;stroke-width:1" shape-rendering="crispEdges" />
    <text dominant-baseline="middle" text-anchor="start" transform="translate(1896.988,1050.947)" font-family="Segoe UI" font-size="12" font-weight="400" fill="black">0</text>
    <text dominant-baseline="middle" text-anchor="start" transform="translate(1896.988,949.2629)" font-family="Segoe UI" font-size="12" font-weight="400" fill="black">10</text>
    <text dominant-baseline="middle" text-anchor="start" transform="translate(1896.988,847.5788)" font-family="Segoe UI" font-size="12" font-weight="400" fill="black">20</text>
    <text dominant-baseline="middle" text-anchor="start" transform="translate(1896.988,745.8947)" font-family="Segoe UI" font-size="12" font-weight="400" fill="black">30</text>
    <text dominant-baseline="middle" text-anchor="start" transform="translate(1896.988,644.2106)" font-family="Segoe UI" font-size="12" font-weight="400" fill="black">40</text>
    <text dominant-baseline="middle" text-anchor="start" transform="translate(1896.988,542.5265)" font-family="Segoe UI" font-size="12" font-weight="400" fill="black">50</text>
    <text dominant-baseline="middle" text-anchor="start" transform="translate(1896.988,440.8424)" font-family="Segoe UI" font-size="12" font-weight="400" fill="black">60</text>
    <text dominant-baseline="middle" text-anchor="start" transform="translate(1896.988,339.1583)" font-family="Segoe UI" font-size="12" font-weight="400" fill="black">70</text>
    <text dominant-baseline="middle" text-anchor="start" transform="translate(1896.988,237.4742)" font-family="Segoe UI" font-size="12" font-weight="400" fill="black">80</text>
    <text dominant-baseline="middle" text-anchor="start" transform="translate(1896.988,135.7901)" font-family="Segoe UI" font-size="12" font-weight="400" fill="black">90</text>
    <text dominant-baseline="middle" text-anchor="start" transform="translate(1896.988,34.106)" font-family="Segoe UI" font-size="12" font-weight="400" fill="black">100</text>
    <polyline points="1885.988,1050.947 1892.988,1050.947" style="fill:none;stroke:black;stroke-width:1" shape-rendering="crispEdges" />
    <polyline points="1885.988,949.2629 1892.988,949.2629" style="fill:none;stroke:black;stroke-width:1" shape-rendering="crispEdges" />
    <polyline points="1885.988,847.5788 1892.988,847.5788" style="fill:none;stroke:black;stroke-width:1" shape-rendering="crispEdges" />
    <polyline points="1885.988,745.8947 1892.988,745.8947" style="fill:none;stroke:black;stroke-width:1" shape-rendering="crispEdges" />
    <polyline points="1885.988,644.2106 1892.988,644.2106" style="fill:none;stroke:black;stroke-width:1" shape-rendering="crispEdges" />
    <polyline points="1885.988,542.5265 1892.988,542.5265" style="fill:none;stroke:black;stroke-width:1" shape-rendering="crispEdges" />
    <polyline points="1885.988,440.8424 1892.988,440.8424" style="fill:none;stroke:black;stroke-width:1" shape-rendering="crispEdges" />
    <polyline points="1885.988,339.1583 1892.988,339.1583" style="fill:none;stroke:black;stroke-width:1" shape-rendering="crispEdges" />
    <polyline points="1885.988,237.4742 1892.988,237.4742" style="fill:none;stroke:black;stroke-width:1" shape-rendering="crispEdges" />
    <polyline points="1885.988,135.7901 1892.988,135.7901" style="fill:none;stroke:black;stroke-width:1" shape-rendering="crispEdges" />
    <polyline points="1885.988,34.106 1892.988,34.106" style="fill:none;stroke:black;stroke-width:1" shape-rendering="crispEdges" />
    <text dominant-baseline="hanging" text-anchor="middle" transform="translate(34.012,1061.947)" font-family="Segoe UI" font-size="12" font-weight="400" fill="black">0</text>
    <text dominant-baseline="hanging" text-anchor="middle" transform="translate(125.6108,1061.947)" font-family="Segoe UI" font-size="12" font-weight="400" fill="black">5</text>
    <text dominant-baseline="hanging" text-anchor="middle" transform="translate(217.2096,1061.947)" font-family="Segoe UI" font-size="12" font-weight="400" fill="black">10</text>
    <text dominant-baseline="hanging" text-anchor="middle" transform="translate(308.8084,1061.947)" font-family="Segoe UI" font-size="12" font-weight="400" fill="black">15</text>
    <text dominant-baseline="hanging" text-anchor="middle" transform="translate(400.4072,1061.947)" font-family="Segoe UI" font-size="12" font-weight="400" fill="black">20</text>
    <text dominant-baseline="hanging" text-anchor="middle" transform="translate(492.006,1061.947)" font-family="Segoe UI" font-size="12" font-weight="400" fill="black">25</text>
    <text dominant-baseline="hanging" text-anchor="middle" transform="translate(583.6048,1061.947)" font-family="Segoe UI" font-size="12" font-weight="400" fill="black">30</text>
    <text dominant-baseline="hanging" text-anchor="middle" transform="translate(675.2036,1061.947)" font-family="Segoe UI" font-size="12" font-weight="400" fill="black">35</text>
    <text dominant-baseline="hanging" text-anchor="middle" transform="translate(766.8024,1061.947)" font-family="Segoe UI" font-size="12" font-weight="400" fill="black">40</text>
    <text dominant-baseline="hanging" text-anchor="middle" transform="translate(858.4012,1061.947)" font-family="Segoe UI" font-size="12" font-weight="400" fill="black">45</text>
    <text dominant-baseline="hanging" text-anchor="middle" transform="translate(950,1061.947)" font-family="Segoe UI" font-size="12" font-weight="400" fill="black">50</text>
    <text dominant-baseline="hanging" text-anchor="middle" transform="translate(1041.5988,1061.947)" font-family="Segoe UI" font-size="12" font-weight="400" fill="black">55</text>
    <text dominant-baseline="hanging" text-anchor="middle" transform="translate(1133.1976,1061.947)" font-family="Segoe UI" font-size="12" font-weight="400" fill="black">60</text>
    <text dominant-baseline="hanging" text-anchor="middle" transform="translate(1224.7964,1061.947)" font-family="Segoe UI" font-size="12" font-weight="400" fill="black">65</text>
    <text dominant-baseline="hanging" text-anchor="middle" transform="translate(1316.3952,1061.947)" font-family="Segoe UI" font-size="12" font-weight="400" fill="black">70</text>
    <text dominant-baseline="hanging" text-anchor="middle" transform="translate(1407.994,1061.947)" font-family="Segoe UI" font-size="12" font-weight="400" fill="black">75</text>
    <text dominant-baseline="hanging" text-anchor="middle" transform="translate(1499.5928,1061.947)" font-family="Segoe UI" font-size="12" font-weight="400" fill="black">80</text>
    <text dominant-baseline="hanging" text-anchor="middle" transform="translate(1591.1916,1061.947)" font-family="Segoe UI" font-size="12" font-weight="400" fill="black">85</text>
    <text dominant-baseline="hanging" text-anchor="middle" transform="translate(1682.7904,1061.947)" font-family="Segoe UI" font-size="12" font-weight="400" fill="black">90</text>
    <text dominant-baseline="hanging" text-anchor="middle" transform="translate(1774.3892,1061.947)" font-family="Segoe UI" font-size="12" font-weight="400" fill="black">95</text>
    <text dominant-baseline="hanging" text-anchor="middle" transform="translate(1865.988,1061.947)" font-family="Segoe UI" font-size="12" font-weight="400" fill="black">100</text>
    <polyline points="34.012,1050.947 34.012,1057.947" style="fill:none;stroke:black;stroke-width:1" shape-rendering="crispEdges" />
    <polyline points="125.6108,1050.947 125.6108,1057.947" style="fill:none;stroke:black;stroke-width:1" shape-rendering="crispEdges" />
    <polyline points="217.2096,1050.947 217.2096,1057.947" style="fill:none;stroke:black;stroke-width:1" shape-rendering="crispEdges" />
    <polyline points="308.8084,1050.947 308.8084,1057.947" style="fill:none;stroke:black;stroke-width:1" shape-rendering="crispEdges" />
    <polyline points="400.4072,1050.947 400.4072,1057.947" style="fill:none;stroke:black;stroke-width:1" shape-rendering="crispEdges" />
    <polyline points="492.006,1050.947 492.006,1057.947" style="fill:none;stroke:black;stroke-width:1" shape-rendering="crispEdges" />
    <polyline points="583.6048,1050.947 583.6048,1057.947" style="fill:none;stroke:black;stroke-width:1" shape-rendering="crispEdges" />
    <polyline points="675.2036,1050.947 675.2036,1057.947" style="fill:none;stroke:black;stroke-width:1" shape-rendering="crispEdges" />
    <polyline points="766.8024,1050.947 766.8024,1057.947" style="fill:none;stroke:black;stroke-width:1" shape-rendering="crispEdges" />
    <polyline points="858.4012,1050.947 858.4012,1057.947" style="fill:none;stroke:black;stroke-width:1" shape-rendering="crispEdges" />
    <polyline points="950,1050.947 950,1057.947" style="fill:none;stroke:black;stroke-width:1" shape-rendering="crispEdges" />
    <polyline points="1041.5988,1050.947 1041.5988,1057.947" style="fill:none;stroke:black;stroke-width:1" shape-rendering="crispEdges" />
    <polyline points="1133.1976,1050.947 1133.1976,1057.947" style="fill:none;stroke:black;stroke-width:1" shape-rendering="crispEdges" />
    <polyline points="1224.7964,1050.947 1224.7964,1057.947" style="fill:none;stroke:black;stroke-width:1" shape-rendering="crispEdges" />
    <polyline points="1316.3952,1050.947 1316.3952,1057.947" style="fill:none;stroke:black;stroke-width:1" shape-rendering="crispEdges" />
    <polyline points="1407.994,1050.947 1407.994,1057.947" style="fill:none;stroke:black;stroke-width:1" shape-rendering="crispEdges" />
    <polyline points="1499.5928,1050.947 1499.5928,1057.947" style="fill:none;stroke:black;stroke-width:1" shape-rendering="crispEdges" />
    <polyline points="1591.1916,1050.947 1591.1916,1057.947" style="fill:none;stroke:black;stroke-width:1" shape-rendering="crispEdges" />
    <polyline points="1682.7904,1050.947 1682.7904,1057.947" style="fill:none;stroke:black;stroke-width:1" shape-rendering="crispEdges" />
    <polyline points="1774.3892,1050.947 1774.3892,1057.947" style="fill:none;stroke:black;stroke-width:1" shape-rendering="crispEdges" />
    <polyline points="1865.988,1050.947 1865.988,1057.947" style="fill:none;stroke:black;stroke-width:1" shape-rendering="crispEdges" />
    <text dominant-baseline="middle" text-anchor="end" transform="translate(23.012,1050.947)" font-family="Segoe UI" font-size="12" font-weight="400" fill="black">0</text>
    <text dominant-baseline="middle" text-anchor="end" transform="translate(23.012,949.2629)" font-family="Segoe UI" font-size="12" font-weight="400" fill="black">10</text>
    <text dominant-baseline="middle" text-anchor="end" transform="translate(23.012,847.5788)" font-family="Segoe UI" font-size="12" font-weight="400" fill="black">20</text>
    <text dominant-baseline="middle" text-anchor="end" transform="translate(23.012,745.8947)" font-family="Segoe UI" font-size="12" font-weight="400" fill="black">30</text>
    <text dominant-baseline="middle" text-anchor="end" transform="translate(23.012,644.2106)" font-family="Segoe UI" font-size="12" font-weight="400" fill="black">40</text>
    <text dominant-baseline="middle" text-anchor="end" transform="translate(23.012,542.5265)" font-family="Segoe UI" font-size="12" font-weight="400" fill="black">50</text>
    <text dominant-baseline="middle" text-anchor="end" transform="translate(23.012,440.8424)" font-family="Segoe UI" font-size="12" font-weight="400" fill="black">60</text>
    <text dominant-baseline="middle" text-anchor="end" transform="translate(23.012,339.1583)" font-family="Segoe UI" font-size="12" font-weight="400" fill="black">70</text>
    <text dominant-baseline="middle" text-anchor="end" transform="translate(23.012,237.4742)" font-family="Segoe UI" font-size="12" font-weight="400" fill="black">80</text>
    <text dominant-baseline="middle" text-anchor="end" transform="translate(23.012,135.7901)" font-family="Segoe UI" font-size="12" font-weight="400" fill="black">90</text>
    <text dominant-baseline="middle" text-anchor="end" transform="translate(23.012,34.106)" font-family="Segoe UI" font-size="12" font-weight="400" fill="black">100</text>
    <polyline points="34.012,1050.947 27.012,1050.947" style="fill:none;stroke:black;stroke-width:1" shape-rendering="crispEdges" />
    <polyline points="34.012,949.2629 27.012,949.2629" style="fill:none;stroke:black;stroke-width:1" shape-rendering="crispEdges" />
    <polyline points="34.012,847.5788 27.012,847.5788" style="fill:none;stroke:black;stroke-width:1" shape-rendering="crispEdges" />
    <polyline points="34.012,745.8947 27.012,745.8947" style="fill:none;stroke:black;stroke-width:1" shape-rendering="crispEdges" />
    <polyline points="34.012,644.2106 27.012,644.2106" style="fill:none;stroke:black;stroke-width:1" shape-rendering="crispEdges" />
    <polyline points="34.012,542.5265 27.012,542.5265" style="fill:none;stroke:black;stroke-width:1" shape-rendering="crispEdges" />
    <polyline points="34.012,440.8424 27.012,440.8424" style="fill:none;stroke:black;stroke-width:1" shape-rendering="crispEdges" />
    <polyline points="34.012,339.1583 27.012,339.1583" style="fill:none;stroke:black;stroke-width:1" shape-rendering="crispEdges" />
    <polyline points="34.012,237.4742 27.012,237.4742" style="fill:none;stroke:black;stroke-width:1" shape-rendering="crispEdges" />
    <polyline points="34.012,135.7901 27.012,135.7901" style="fill:none;stroke:black;stroke-width:1" shape-rendering="crispEdges" />
    <polyline points="34.012,34.106 27.012,34.106" style="fill:none;stroke:black;stroke-width:1" shape-rendering="crispEdges" />
  </g>
  <defs>
    <clipPath id="clipPath2">
      <rect x="34.012" y="34.106" width="1831.976" height="1016.841" />
    </clipPath>
  </defs>
  <g clip-path="url(#clipPath2)" />
  <defs>
    <clipPath id="clipPath3">
      <rect x="0" y="0" width="1920" height="1080" />
    </clipPath>
  </defs>
  <g clip-path="url(#clipPath3)">
    <text dominant-baseline="hanging" text-anchor="middle" transform="translate(950,8)" font-family="Segoe UI" font-size="18" font-weight="700" fill="black">LineSeries</text>
    <rect x="34.012" y="34.106" width="1831.976" height="1016.841" style="fill:none;stroke:black;stroke-width:1" shape-rendering="crispEdges" />
  </g>
</svg>