<?xml version="1.0" encoding="utf-8" standalone="no"?>
<!DOCTYPE svg PUBLIC "-//W3C//DTD SVG 1.1//EN" "http://www.w3.org/Graphics/SVG/1.1/DTD/svg11.dtd">
<svg width="1920" height="1080" version="1.1" xmlns:xlink="http://www.w3.org/1999/xlink" xmlns="http://www.w3.org/2000/svg">
  <defs>
    <clipPath id="clipPath1">
      <rect x="0" y="0" width="1920" height="1080" />
    </clipPath>
  </defs>
  <g clip-path="url(#clipPath1)">
    <rect x="1885.988" y="34.106" width="5" height="1017.341" style="fill:rgb(0,0,139);stroke:none;" />
    <polyline points="1885.988,1030.6102 1889.988,1030.6102" style="fill:none;stroke:black;stroke-width:1" shape-rendering="crispEdges" />
    <polyline points="1885.988,1010.2734 1889.988,1010.2734" style="fill:none;stroke:black;stroke-width:1" shape-rendering="crispEdges" />
    <polyline points="1885.988,989.9365 1889.988,989.9365" style="fill:none;stroke:black;stroke-width:1" shape-rendering="crispEdges" />
    <polyline points="1885.988,969.5997 1889.988,969.5997" style="fill:none;stroke:black;stroke-width:1" shape-rendering="crispEdges" />
    <polyline points="1885.988,928.9261 1889.988,928.9261" style="fill:none;stroke:black;stroke-width:1" shape-rendering="crispEdges" />
    <polyline points="1885.988,908.5893 1889.988,908.5893" style="fill:none;stroke:black;stroke-width:1" shape-rendering="crispEdges" />
    <polyline points="1885.988,888.2524 1889.988,888.2524" style="fill:none;stroke:black;stroke-width:1" shape-rendering="crispEdges" />
    <polyline points="1885.988,867.9156 1889.988,867.9156" style="fill:none;stroke:black;stroke-width:1" shape-rendering="crispEdges" />
    <polyline points="1885.988,827.242 1889.988,827.242" style="fill:none;stroke:black;stroke-width:1" shape-rendering="crispEdges" />
    <polyline points="1885.988,806.9052 1889.988,806.9052" style="fill:none;stroke:black;stroke-width:1" shape-rendering="crispEdges" />
    <polyline points="1885.988,786.5683 1889.988,786.5683" style="fill:none;stroke:black;stroke-width:1" shape-rendering="crispEdges" />
    <polyline points="1885.988,766.2315 1889.988,766.2315" style="fill:none;stroke:black;stroke-width:1" shape-rendering="crispEdges" />
    <polyline points="1885.988,725.5579 1889.988,725.5579" style="fill:none;stroke:black;stroke-width:1" shape-rendering="crispEdges" />
    <polyline points="1885.988,705.2211 1889.988,705.2211" style="fill:none;stroke:black;stroke-width:1" shape-rendering="crispEdges" />
    <polyline points="1885.988,684.8842 1889.988,684.8842" style="fill:none;stroke:black;stroke-width:1" shape-rendering="crispEdges" />
    <polyline points="1885.988,664.5474 1889.988,664.5474" style="fill:none;stroke:black;stroke-width:1" shape-rendering="crispEdges" />
    <polyline points="1885.988,623.8738 1889.988,623.8738" style="fill:none;stroke:black;stroke-width:1" shape-rendering="crispEdges" />
    <polyline points="1885.988,603.537 1889.988,603.537" style="fill:none;stroke:black;stroke-width:1" shape-rendering="crispEdges" />
    <polyline points="1885.988,583.2001 1889.988,583.2001" style="fill:none;stroke:black;stroke-width:1" shape-rendering="crispEdges" />
    <polyline points="1885.988,562.8633 1889.988,562.8633" style="fill:none;stroke:black;stroke-width:1" shape-rendering="crispEdges" />
    <polyline points="1885.988,522.1897 1889.988,522.1897" style="fill:none;stroke:black;stroke-width:1" shape-rendering="crispEdges" />
    <polyline points="1885.988,501.8529 1889.988,501.8529" style="fill:none;stroke:black;stroke-width:1" shape-rendering="crispEdges" />
    <polyline points="1885.988,481.516 1889.988,481.516" style="fill:none;stroke:black;stroke-width:1" shape-rendering="crispEdges" />
    <polyline points="1885.988,461.1792 1889.988,461.1792" style="fill:none;stroke:black;stroke-width:1" shape-rendering="crispEdges" />
    <polyline points="1885.988,420.5056 1889.988,420.5056" style="fill:none;stroke:black;stroke-width:1" shape-rendering="crispEdges" />
    <polyline points="1885.988,400.1688 1889.988,400.1688" style="fill:none;stroke:black;stroke-width:1" shape-rendering="crispEdges" />
    <polyline points="1885.988,379.8319 1889.988,379.8319" style="fill:none;stroke:black;stroke-width:1" shape-rendering="crispEdges" />
    <polyline points="1885.988,359.4951 1889.988,359.4951" style="fill:none;stroke:black;stroke-width:1" shape-rendering="crispEdges" />
    <polyline points="1885.988,318.8215 1889.988,318.8215" style="fill:none;stroke:black;stroke-width:1" shape-rendering="crispEdges" />
    <polyline points="1885.988,298.4847 1889.988,298.4847" style="fill:none;stroke:black;stroke-width:1" shape-rendering="crispEdges" />
    <polyline points="1885.988,278.1478 1889.988,278.1478" style="fill:none;stroke:black;stroke-width:1" shape-rendering="crispEdges" />
    <polyline points="1885.988,257.811 1889.988,257.811" style="fill:none;stroke:black;stroke-width:1" shape-rendering="crispEdges" />
    <polyline points="1885.988,217.1374 1889.988,217.1374" style="fill:none;stroke:black;stroke-width:1" shape-rendering="crispEdges" />
    <polyline points="1885.988,196.8006 1889.988,196.8006" style="fill:none;stroke:black;stroke-width:1" shape-rendering="crispEdges" />
    <polyline points="1885.988,176.4637 1889.988,176.4637" style="fill:none;stroke:black;stroke-width:1" shape-rendering="crispEdges" />
    <polyline points="1885.988,156.1269 1889.988,156.1269" style="fill:none;stroke:black;stroke-width:1" shape-rendering="crispEdges" />
    <polyline points="1885.988,115.4533 1889.988,115.4533" style="fill:none;stroke:black;stroke-width:1" shape-rendering="crispEdges" />
    <polyline points="1885.988,95.1165 1889.988,95.1165" style="fill:none;stroke:black;stroke-width:1" shape-rendering="crispEdges" />
    <polyline points="1885.988,74.7796 1889.988,74.7796" style="fill:none;stroke:black;stroke-width:1" shape-rendering="crispEdges" />
    <polyline points="1885.988,54.4428 1889.988,54.4428" style="fill:none;stroke:black;stroke-width:1" shape-rendering="crispEdges" />
    <polyline points="71.9676,1050.947 71.9676,1054.947" style="fill:none;stroke:black;stroke-width:1" shape-rendering="crispEdges" />
    <polyline points="94.4491,1050.947 94.4491,1054.947" style="fill:none;stroke:black;stroke-width:1" shape-rendering="crispEdges" />
    <polyline points="116.9305,1050.947 116.9305,1054.947" style="fill:none;stroke:black;stroke-width:1" shape-rendering="crispEdges" />
    <polyline points="139.412,1050.947 139.412,1054.947" style="fill:none;stroke:black;stroke-width:1" shape-rendering="crispEdges" />
    <polyline points="184.3749,1050.947 184.3749,1054.947" style="fill:none;stroke:black;stroke-width:1" shape-rendering="crispEdges" />
    <polyline points="206.8564,1050.947 206.8564,1054.947" style="fill:none;stroke:black;stroke-width:1" shape-rendering="crispEdges" />
    <polyline points="229.3378,1050.947 229.3378,1054.947" style="fill:none;stroke:black;stroke-width:1" shape-rendering="crispEdges" />
    <polyline points="251.8193,1050.947 251.8193,1054.947" style="fill:none;stroke:black;stroke-width:1" shape-rendering="crispEdges" />
    <polyline points="296.7822,1050.947 296.7822,1054.947" style="fill:none;stroke:black;stroke-width:1" shape-rendering="crispEdges" />
    <polyline points="319.2637,1050.947 319.2637,1054.947" style="fill:none;stroke:black;stroke-width:1" shape-rendering="crispEdges" />
    <polyline points="341.7451,1050.947 341.7451,1054.947" style="fill:none;stroke:black;stroke-width:1" shape-rendering="crispEdges" />
    <polyline points="364.2266,1050.947 364.2266,1054.947" style="fill:none;stroke:black;stroke-width:1" shape-rendering="crispEdges" />
    <polyline points="409.1895,1050.947 409.1895,1054.947" style="fill:none;stroke:black;stroke-width:1" shape-rendering="crispEdges" />
    <polyline points="431.671,1050.947 431.671,1054.947" style="fill:none;stroke:black;stroke-width:1" shape-rendering="crispEdges" />
    <polyline points="454.1524,1050.947 454.1524,1054.947" style="fill:none;stroke:black;stroke-width:1" shape-rendering="crispEdges" />
    <polyline points="476.6339,1050.947 476.6339,1054.947" style="fill:none;stroke:black;stroke-width:1" shape-rendering="crispEdges" />
    <polyline points="521.5968,1050.947 521.5968,1054.947" style="fill:none;stroke:black;stroke-width:1" shape-rendering="crispEdges" />
    <polyline points="544.0783,1050.947 544.0783,1054.947" style="fill:none;stroke:black;stroke-width:1" shape-rendering="crispEdges" />
    <polyline points="566.5597,1050.947 566.5597,1054.947" style="fill:none;stroke:black;stroke-width:1" shape-rendering="crispEdges" />
    <polyline points="589.0412,1050.947 589.0412,1054.947" style="fill:none;stroke:black;stroke-width:1" shape-rendering="crispEdges" />
    <polyline points="634.0041,1050.947 634.0041,1054.947" style="fill:none;stroke:black;stroke-width:1" shape-rendering="crispEdges" />
    <polyline points="656.4855,1050.947 656.4855,1054.947" style="fill:none;stroke:black;stroke-width:1" shape-rendering="crispEdges" />
    <polyline points="678.967,1050.947 678.967,1054.947" style="fill:none;stroke:black;stroke-width:1" shape-rendering="crispEdges" />
    <polyline points="701.4485,1050.947 701.4485,1054.947" style="fill:none;stroke:black;stroke-width:1" shape-rendering="crispEdges" />
    <polyline points="746.4114,1050.947 746.4114,1054.947" style="fill:none;stroke:black;stroke-width:1" shape-rendering="crispEdges" />
    <polyline points="768.8928,1050.947 768.8928,1054.947" style="fill:none;stroke:black;stroke-width:1" shape-rendering="crispEdges" />
    <polyline points="791.3743,1050.947 791.3743,1054.947" style="fill:none;stroke:black;stroke-width:1" shape-rendering="crispEdges" />
    <polyline points="813.8558,1050.947 813.8558,1054.947" style="fill:none;stroke:black;stroke-width:1" shape-rendering="crispEdges" />
    <polyline points="858.8187,1050.947 858.8187,1054.947" style="fill:none;stroke:black;stroke-width:1" shape-rendering="crispEdges" />
    <polyline points="881.3001,1050.947 881.3001,1054.947" style="fill:none;stroke:black;stroke-width:1" shape-rendering="crispEdges" />
    <polyline points="903.7816,1050.947 903.7816,1054.947" style="fill:none;stroke:black;stroke-width:1" shape-rendering="crispEdges" />
    <polyline points="926.263,1050.947 926.263,1054.947" style="fill:none;stroke:black;stroke-width:1" shape-rendering="crispEdges" />
    <polyline points="971.226,1050.947 971.226,1054.947" style="fill:none;stroke:black;stroke-width:1" shape-rendering="crispEdges" />
    <polyline points="993.7074,1050.947 993.7074,1054.947" style="fill:none;stroke:black;stroke-width:1" shape-rendering="crispEdges" />
    <polyline points="1016.1889,1050.947 1016.1889,1054.947" style="fill:none;stroke:black;stroke-width:1" shape-rendering="crispEdges" />
    <polyline points="1038.6703,1050.947 1038.6703,1054.947" style="fill:none;stroke:black;stroke-width:1" shape-rendering="crispEdges" />
    <polyline points="1083.6333,1050.947 1083.6333,1054.947" style="fill:none;stroke:black;stroke-width:1" shape-rendering="crispEdges" />
    <polyline points="1106.1147,1050.947 1106.1147,1054.947" style="fill:none;stroke:black;stroke-width:1" shape-rendering="crispEdges" />
    <polyline points="1128.5962,1050.947 1128.5962,1054.947" style="fill:none;stroke:black;stroke-width:1" shape-rendering="crispEdges" />
    <polyline points="1151.0776,1050.947 1151.0776,1054.947" style="fill:none;stroke:black;stroke-width:1" shape-rendering="crispEdges" />
    <polyline points="1196.0405,1050.947 1196.0405,1054.947" style="fill:none;stroke:black;stroke-width:1" shape-rendering="crispEdges" />
    <polyline points="1218.522,1050.947 1218.522,1054.947" style="fill:none;stroke:black;stroke-width:1" shape-rendering="crispEdges" />
    <polyline points="1241.0035,1050.947 1241.0035,1054.947" style="fill:none;stroke:black;stroke-width:1" shape-rendering="crispEdges" />
    <polyline points="1263.4849,1050.947 1263.4849,1054.947" style="fill:none;stroke:black;stroke-width:1" shape-rendering="crispEdges" />
    <polyline points="1308.4478,1050.947 1308.4478,1054.947" style="fill:none;stroke:black;stroke-width:1" shape-rendering="crispEdges" />
    <polyline points="1330.9293,1050.947 1330.9293,1054.947" style="fill:none;stroke:black;stroke-width:1" shape-rendering="crispEdges" />
    <polyline points="1353.4108,1050.947 1353.4108,1054.947" style="fill:none;stroke:black;stroke-width:1" shape-rendering="crispEdges" />
    <polyline points="1375.8922,1050.947 1375.8922,1054.947" style="fill:none;stroke:black;stroke-width:1" shape-rendering="crispEdges" />
    <polyline points="1420.8551,1050.947 1420.8551,1054.947" style="fill:none;stroke:black;stroke-width:1" shape-rendering="crispEdges" />
    <polyline points="1443.3366,1050.947 1443.3366,1054.947" style="fill:none;stroke:black;stroke-width:1" shape-rendering="crispEdges" />
    <polyline points="1465.818,1050.947 1465.818,1054.947" style="fill:none;stroke:black;stroke-width:1" shape-rendering="crispEdges" />
    <polyline points="1488.2995,1050.947 1488.2995,1054.947" style="fill:none;stroke:black;stroke-width:1" shape-rendering="crispEdges" />
    <polyline points="1533.2624,1050.947 1533.2624,1054.947" style="fill:none;stroke:black;stroke-width:1" shape-rendering="crispEdges" />
    <polyline points="1555.7439,1050.947 1555.7439,1054.947" style="fill:none;stroke:black;stroke-width:1" shape-rendering="crispEdges" />
    <polyline points="1578.2253,1050.947 1578.2253,1054.947" style="fill:none;stroke:black;stroke-width:1" shape-rendering="crispEdges" />
    <polyline points="1600.7068,1050.947 1600.7068,1054.947" style="fill:none;stroke:black;stroke-width:1" shape-rendering="crispEdges" />
    <polyline points="1645.6697,1050.947 1645.6697,1054.947" style="fill:none;stroke:black;stroke-width:1" shape-rendering="crispEdges" />
    <polyline points="1668.1512,1050.947 1668.1512,1054.947" style="fill:none;stroke:black;stroke-width:1" shape-rendering="crispEdges" />
    <polyline points="1690.6326,1050.947 1690.6326,1054.947" style="fill:none;stroke:black;stroke-width:1" shape-rendering="crispEdges" />
    <polyline points="1713.1141,1050.947 1713.1141,1054.947" style="fill:none;stroke:black;stroke-width:1" shape-rendering="crispEdges" />
    <polyline points="1758.077,1050.947 1758.077,1054.947" style="fill:none;stroke:black;stroke-width:1" shape-rendering="crispEdges" />
    <polyline points="1780.5585,1050.947 1780.5585,1054.947" style="fill:none;stroke:black;stroke-width:1" shape-rendering="crispEdges" />
    <polyline points="1803.0399,1050.947 1803.0399,1054.947" style="fill:none;stroke:black;stroke-width:1" shape-rendering="crispEdges" />
    <polyline points="1825.5214,1050.947 1825.5214,1054.947" style="fill:none;stroke:black;stroke-width:1" shape-rendering="crispEdges" />
    <polyline points="31.501,1024.3629 27.501,1024.3629" style="fill:none;stroke:black;stroke-width:1" shape-rendering="crispEdges" />
    <polyline points="31.501,1007.7479 27.501,1007.7479" style="fill:none;stroke:black;stroke-width:1" shape-rendering="crispEdges" />
    <polyline points="31.501,991.1328 27.501,991.1328" style="fill:none;stroke:black;stroke-width:1" shape-rendering="crispEdges" />
    <polyline points="31.501,957.9027 27.501,957.9027" style="fill:none;stroke:black;stroke-width:1" shape-rendering="crispEdges" />
    <polyline points="31.501,941.2877 27.501,941.2877" style="fill:none;stroke:black;stroke-width:1" shape-rendering="crispEdges" />
    <polyline points="31.501,924.6726 27.501,924.6726" style="fill:none;stroke:black;stroke-width:1" shape-rendering="crispEdges" />
    <polyline points="31.501,891.4425 27.501,891.4425" style="fill:none;stroke:black;stroke-width:1" shape-rendering="crispEdges" />
    <polyline points="31.501,874.8275 27.501,874.8275" style="fill:none;stroke:black;stroke-width:1" shape-rendering="crispEdges" />
    <polyline points="31.501,858.2124 27.501,858.2124" style="fill:none;stroke:black;stroke-width:1" shape-rendering="crispEdges" />
    <polyline points="31.501,824.9823 27.501,824.9823" style="fill:none;stroke:black;stroke-width:1" shape-rendering="crispEdges" />
    <polyline points="31.501,808.3673 27.501,808.3673" style="fill:none;stroke:black;stroke-width:1" shape-rendering="crispEdges" />
    <polyline points="31.501,791.7522 27.501,791.7522" style="fill:none;stroke:black;stroke-width:1" shape-rendering="crispEdges" />
    <polyline points="31.501,758.5221 27.501,758.5221" style="fill:none;stroke:black;stroke-width:1" shape-rendering="crispEdges" />
    <polyline points="31.501,741.9071 27.501,741.9071" style="fill:none;stroke:black;stroke-width:1" shape-rendering="crispEdges" />
    <polyline points="31.501,725.292 27.501,725.292" style="fill:none;stroke:black;stroke-width:1" shape-rendering="crispEdges" />
    <polyline points="31.501,692.0619 27.501,692.0619" style="fill:none;stroke:black;stroke-width:1" shape-rendering="crispEdges" />
    <polyline points="31.501,675.4469 27.501,675.4469" style="fill:none;stroke:black;stroke-width:1" shape-rendering="crispEdges" />
    <polyline points="31.501,658.8318 27.501,658.8318" style="fill:none;stroke:black;stroke-width:1" shape-rendering="crispEdges" />
    <polyline points="31.501,625.6017 27.501,625.6017" style="fill:none;stroke:black;stroke-width:1" shape-rendering="crispEdges" />
    <polyline points="31.501,608.9867 27.501,608.9867" style="fill:none;stroke:black;stroke-width:1" shape-rendering="crispEdges" />
    <polyline points="31.501,592.3716 27.501,592.3716" style="fill:none;stroke:black;stroke-width:1" shape-rendering="crispEdges" />
    <polyline points="31.501,559.1415 27.501,559.1415" style="fill:none;stroke:black;stroke-width:1" shape-rendering="crispEdges" />
    <polyline points="31.501,542.5265 27.501,542.5265" style="fill:none;stroke:black;stroke-width:1" shape-rendering="crispEdges" />
    <polyline points="31.501,525.9115 27.501,525.9115" style="fill:none;stroke:black;stroke-width:1" shape-rendering="crispEdges" />
    <polyline points="31.501,492.6814 27.501,492.6814" style="fill:none;stroke:black;stroke-width:1" shape-rendering="crispEdges" />
    <polyline points="31.501,476.0663 27.501,476.0663" style="fill:none;stroke:black;stroke-width:1" shape-rendering="crispEdges" />
    <polyline points="31.501,459.4513 27.501,459.4513" style="fill:none;stroke:black;stroke-width:1" shape-rendering="crispEdges" />
    <polyline points="31.501,426.2212 27.501,426.2212" style="fill:none;stroke:black;stroke-width:1" shape-rendering="crispEdges" />
    <polyline points="31.501,409.6061 27.501,409.6061" style="fill:none;stroke:black;stroke-width:1" shape-rendering="crispEdges" />
    <polyline points="31.501,392.9911 27.501,392.9911" style="fill:none;stroke:black;stroke-width:1" shape-rendering="crispEdges" />
    <polyline points="31.501,359.761 27.501,359.761" style="fill:none;stroke:black;stroke-width:1" shape-rendering="crispEdges" />
    <polyline points="31.501,343.1459 27.501,343.1459" style="fill:none;stroke:black;stroke-width:1" shape-rendering="crispEdges" />
    <polyline points="31.501,326.5309 27.501,326.5309" style="fill:none;stroke:black;stroke-width:1" shape-rendering="crispEdges" />
    <polyline points="31.501,293.3008 27.501,293.3008" style="fill:none;stroke:black;stroke-width:1" shape-rendering="crispEdges" />
    <polyline points="31.501,276.6857 27.501,276.6857" style="fill:none;stroke:black;stroke-width:1" shape-rendering="crispEdges" />
    <polyline points="31.501,260.0707 27.501,260.0707" style="fill:none;stroke:black;stroke-width:1" shape-rendering="crispEdges" />
    <polyline points="31.501,226.8406 27.501,226.8406" style="fill:none;stroke:black;stroke-width:1" shape-rendering="crispEdges" />
    <polyline points="31.501,210.2255 27.501,210.2255" style="fill:none;stroke:black;stroke-width:1" shape-rendering="crispEdges" />
    <polyline points="31.501,193.6105 27.501,193.6105" style="fill:none;stroke:black;stroke-width:1" shape-rendering="crispEdges" />
    <polyline points="31.501,160.3804 27.501,160.3804" style="fill:none;stroke:black;stroke-width:1" shape-rendering="crispEdges" />
    <polyline points="31.501,143.7653 27.501,143.7653" style="fill:none;stroke:black;stroke-width:1" shape-rendering="crispEdges" />
    <polyline points="31.501,127.1503 27.501,127.1503" style="fill:none;stroke:black;stroke-width:1" shape-rendering="crispEdges" />
    <polyline points="31.501,93.9202 27.501,93.9202" style="fill:none;stroke:black;stroke-width:1" shape-rendering="crispEdges" />
    <polyline points="31.501,77.3051 27.501,77.3051" style="fill:none;stroke:black;stroke-width:1" shape-rendering="crispEdges" />
    <polyline points="31.501,60.6901 27.501,60.6901" style="fill:none;stroke:black;stroke-width:1" shape-rendering="crispEdges" />
    <text dominant-baseline="middle" text-anchor="start" transform="translate(1896.988,1050.947)" font-family="Segoe UI" font-size="12" font-weight="400" fill="black">0</text>
    <text dominant-baseline="middle" text-anchor="start" transform="translate(1896.988,949.2629)" font-family="Segoe UI" font-size="12" font-weight="400" fill="black">10</text>
    <text dominant-baseline="middle" text-anchor="start" transform="translate(1896.988,847.5788)" font-family="Segoe UI" font-size="12" font-weight="400" fill="black">20</text>
    <text dominant-baseline="middle" text-anchor="start" transform="translate(1896.988,745.8947)" font-family="Segoe UI" font-size="12" font-weight="400" fill="black">30</text>
    <text dominant-baseline="middle" text-anchor="start" transform="translate(1896.988,644.2106)" font-family="Segoe UI" font-size="12" font-weight="400" fill="black">40</text>
    <text dominant-baseline="middle" text-anchor="start" transform="translate(1896.988,542.5265)" font-family="Segoe UI" font-size="12" font-weight="400" fill="black">50</text>
    <text dominant-baseline="middle" text-anchor="start" transform="translate(1896.988,440.8424)" font-family="Segoe UI" font-size="12" font-weight="400" fill="black">60</text>
    <text dominant-baseline="middle" text-anchor="start" transform="translate(1896.988,339.1583)" font-family="Segoe UI" font-size="12" font-weight="400" fill="black">70</text>
    <text dominant-baseline="middle" text-anchor="start" transform="translate(1896.988,237.4742)" font-family="Segoe UI" font-size="12" font-weight="400" fill="black">80</text>
    <text dominant-baseline="middle" text-anchor="start" transform="translate(1896.988,135.7901)" font-family="Segoe UI" font-size="12" font-weight="400" fill="black">90</text>
    <text dominant-baseline="middle" text-anchor="start" transform="translate(1896.988,34.106)" font-family="Segoe UI" font-size="12" font-weight="400" fill="black">100</text>
    <polyline points="1885.988,1050.947 1892.988,1050.947" style="fill:none;stroke:black;stroke-width:1" shape-rendering="crispEdges" />
    <polyline points="1885.988,949.2629 1892.988,949.2629" style="fill:none;stroke:black;stroke-width:1" shape-rendering="crispEdges" />
    <polyline points="1885.988,847.5788 1892.988,847.5788" style="fill:none;stroke:black;stroke-width:1" shape-rendering="crispEdges" />
    <polyline points="1885.988,745.8947 1892.988,745.8947" style="fill:none;stroke:black;stroke-width:1" shape-rendering="crispEdges" />
    <polyline points="1885.988,644.2106 1892.988,644.2106" style="fill:none;stroke:black;stroke-width:1" shape-rendering="crispEdges" />
    <polyline points="1885.988,542.5265 1892.988,542.5265" style="fill:none;stroke:black;stroke-width:1" shape-rendering="crispEdges" />
    <polyline points="1885.988,440.8424 1892.988,440.8424" style="fill:none;stroke:black;stroke-width:1" shape-rendering="crispEdges" />
    <polyline points="1885.988,339.1583 1892.988,339.1583" style="fill:none;stroke:black;stroke-width:1" shape-rendering="crispEdges" />
    <polyline points="1885.988,237.4742 1892.988,237.4742" style="fill:none;stroke:black;stroke-width:1" shape-rendering="crispEdges" />
    <polyline points="1885.988,135.7901 1892.988,135.7901" style="fill:none;stroke:black;stroke-width:1" shape-rendering="crispEdges" />
    <polyline points="1885.988,34.106 1892.988,34.106" style="fill:none;stroke:black;stroke-width:1" shape-rendering="crispEdges" />
    <text dominant-baseline="hanging" text-anchor="middle" transform="translate(49.4862,1061.947)" font-family="Segoe UI" font-size="12" font-weight="400" fill="black">2</text>
    <text dominant-baseline="hanging" text-anchor="middle" transform="translate(161.8935,1061.947)" font-family="Segoe UI" font-size="12" font-weight="400" fill="black">3</text>
    <text dominant-baseline="hanging" text-anchor="middle" transform="translate(274.3008,1061.947)" font-family="Segoe UI" font-size="12" font-weight="400" fill="black">4</text>
    <text dominant-baseline="hanging" text-anchor="middle" transform="translate(386.708,1061.947)" font-family="Segoe UI" font-size="12" font-weight="400" fill="black">5</text>
    <text dominant-baseline="hanging" text-anchor="middle" transform="translate(499.1153,1061.947)" font-family="Segoe UI" font-size="12" font-weight="400" fill="black">6</text>
    <text dominant-baseline="hanging" text-anchor="middle" transform="translate(611.5226,1061.947)" font-family="Segoe UI" font-size="12" font-weight="400" fill="black">7</text>
    <text dominant-baseline="hanging" text-anchor="middle" transform="translate(723.9299,1061.947)" font-family="Segoe UI" font-size="12" font-weight="400" fill="black">8</text>
    <text dominant-baseline="hanging" text-anchor="middle" transform="translate(836.3372,1061.947)" font-family="Segoe UI" font-size="12" font-weight="400" fill="black">9</text>
    <text dominant-baseline="hanging" text-anchor="middle" transform="translate(948.7445,1061.947)" font-family="Segoe UI" font-size="12" font-weight="400" fill="black">10</text>
    <text dominant-baseline="hanging" text-anchor="middle" transform="translate(1061.1518,1061.947)" font-family="Segoe UI" font-size="12" font-weight="400" fill="black">11</text>
    <text dominant-baseline="hanging" text-anchor="middle" transform="translate(1173.5591,1061.947)" font-family="Segoe UI" font-size="12" font-weight="400" fill="black">12</text>
    <text dominant-baseline="hanging" text-anchor="middle" transform="translate(1285.9664,1061.947)" font-family="Segoe UI" font-size="12" font-weight="400" fill="black">13</text>
    <text dominant-baseline="hanging" text-anchor="middle" transform="translate(1398.3737,1061.947)" font-family="Segoe UI" font-size="12" font-weight="400" fill="black">14</text>
    <text dominant-baseline="hanging" text-anchor="middle" transform="translate(1510.781,1061.947)" font-family="Segoe UI" font-size="12" font-weight="400" fill="black">15</text>
    <text dominant-baseline="hanging" text-anchor="middle" transform="translate(1623.1883,1061.947)" font-family="Segoe UI" font-size="12" font-weight="400" fill="black">16</text>
    <text dominant-baseline="hanging" text-anchor="middle" transform="translate(1735.5955,1061.947)" font-family="Segoe UI" font-size="12" font-weight="400" fill="black">17</text>
    <text dominant-baseline="hanging" text-anchor="middle" transform="translate(1848.0028,1061.947)" font-family="Segoe UI" font-size="12" font-weight="400" fill="black">18</text>
    <polyline points="49.4862,1050.947 49.4862,1057.947" style="fill:none;stroke:black;stroke-width:1" shape-rendering="crispEdges" />
    <polyline points="161.8935,1050.947 161.8935,1057.947" style="fill:none;stroke:black;stroke-width:1" shape-rendering="crispEdges" />
    <polyline points="274.3008,1050.947 274.3008,1057.947" style="fill:none;stroke:black;stroke-width:1" shape-rendering="crispEdges" />
    <polyline points="386.708,1050.947 386.708,1057.947" style="fill:none;stroke:black;stroke-width:1" shape-rendering="crispEdges" />
    <polyline points="499.1153,1050.947 499.1153,1057.947" style="fill:none;stroke:black;stroke-width:1" shape-rendering="crispEdges" />
    <polyline points="611.5226,1050.947 611.5226,1057.947" style="fill:none;stroke:black;stroke-width:1" shape-rendering="crispEdges" />
    <polyline points="723.9299,1050.947 723.9299,1057.947" style="fill:none;stroke:black;stroke-width:1" shape-rendering="crispEdges" />
    <polyline points="836.3372,1050.947 836.3372,1057.947" style="fill:none;stroke:black;stroke-width:1" shape-rendering="crispEdges" />
    <polyline points="948.7445,1050.947 948.7445,1057.947" style="fill:none;stroke:black;stroke-width:1" shape-rendering="crispEdges" />
    <polyline points="1061.1518,1050.947 1061.1518,1057.947" style="fill:none;stroke:black;stroke-width:1" shape-rendering="crispEdges" />
    <polyline points="1173.5591,1050.947 1173.5591,1057.947" style="fill:none;stroke:black;stroke-width:1" shape-rendering="crispEdges" />
    <polyline points="1285.9664,1050.947 1285.9664,1057.947" style="fill:none;stroke:black;stroke-width:1" shape-rendering="crispEdges" />
    <polyline points="1398.3737,1050.947 1398.3737,1057.947" style="fill:none;stroke:black;stroke-width:1" shape-rendering="crispEdges" />
    <polyline points="1510.781,1050.947 1510.781,1057.947" style="fill:none;stroke:black;stroke-width:1" shape-rendering="crispEdges" />
    <polyline points="1623.1883,1050.947 1623.1883,1057.947" style="fill:none;stroke:black;stroke-width:1" shape-rendering="crispEdges" />
    <polyline points="1735.5955,1050.947 1735.5955,1057.947" style="fill:none;stroke:black;stroke-width:1" shape-rendering="crispEdges" />
    <polyline points="1848.0028,1050.947 1848.0028,1057.947" style="fill:none;stroke:black;stroke-width:1" shape-rendering="crispEdges" />
    <text dominant-baseline="middle" text-anchor="end" transform="translate(20.501,1040.978)" font-family="Segoe UI" font-size="12" font-weight="400" fill="black">0</text>
    <text dominant-baseline="middle" text-anchor="end" transform="translate(20.501,974.5178)" font-family="Segoe UI" font-size="12" font-weight="400" fill="black">0.2</text>
    <text dominant-baseline="middle" text-anchor="end" transform="translate(20.501,908.0576)" font-family="Segoe UI" font-size="12" font-weight="400" fill="black">0.4</text>
    <text dominant-baseline="middle" text-anchor="end" transform="translate(20.501,841.5974)" font-family="Segoe UI" font-size="12" font-weight="400" fill="black">0.6</text>
    <text dominant-baseline="middle" text-anchor="end" transform="translate(20.501,775.1372)" font-family="Segoe UI" font-size="12" font-weight="400" fill="black">0.8</text>
    <text dominant-baseline="middle" text-anchor="end" transform="translate(20.501,708.677)" font-family="Segoe UI" font-size="12" font-weight="400" fill="black">1</text>
    <text dominant-baseline="middle" text-anchor="end" transform="translate(20.501,642.2168)" font-family="Segoe UI" font-size="12" font-weight="400" fill="black">1.2</text>
    <text dominant-baseline="middle" text-anchor="end" transform="translate(20.501,575.7566)" font-family="Segoe UI" font-size="12" font-weight="400" fill="black">1.4</text>
    <text dominant-baseline="middle" text-anchor="end" transform="translate(20.501,509.2964)" font-family="Segoe UI" font-size="12" font-weight="400" fill="black">1.6</text>
    <text dominant-baseline="middle" text-anchor="end" transform="translate(20.501,442.8362)" font-family="Segoe UI" font-size="12" font-weight="400" fill="black">1.8</text>
    <text dominant-baseline="middle" text-anchor="end" transform="translate(20.501,376.376)" font-family="Segoe UI" font-size="12" font-weight="400" fill="black">2</text>
    <text dominant-baseline="middle" text-anchor="end" transform="translate(20.501,309.9158)" font-family="Segoe UI" font-size="12" font-weight="400" fill="black">2.2</text>
    <text dominant-baseline="middle" text-anchor="end" transform="translate(20.501,243.4556)" font-family="Segoe UI" font-size="12" font-weight="400" fill="black">2.4</text>
    <text dominant-baseline="middle" text-anchor="end" transform="translate(20.501,176.9954)" font-family="Segoe UI" font-size="12" font-weight="400" fill="black">2.6</text>
    <text dominant-baseline="middle" text-anchor="end" transform="translate(20.501,110.5352)" font-family="Segoe UI" font-size="12" font-weight="400" fill="black">2.8</text>
    <text dominant-baseline="middle" text-anchor="end" transform="translate(20.501,44.075)" font-family="Segoe UI" font-size="12" font-weight="400" fill="black">3</text>
    <polyline points="31.501,1040.978 24.501,1040.978" style="fill:none;stroke:black;stroke-width:1" shape-rendering="crispEdges" />
    <polyline points="31.501,974.5178 24.501,974.5178" style="fill:none;stroke:black;stroke-width:1" shape-rendering="crispEdges" />
    <polyline points="31.501,908.0576 24.501,908.0576" style="fill:none;stroke:black;stroke-width:1" shape-rendering="crispEdges" />
    <polyline points="31.501,841.5974 24.501,841.5974" style="fill:none;stroke:black;stroke-width:1" shape-rendering="crispEdges" />
    <polyline points="31.501,775.1372 24.501,775.1372" style="fill:none;stroke:black;stroke-width:1" shape-rendering="crispEdges" />
    <polyline points="31.501,708.677 24.501,708.677" style="fill:none;stroke:black;stroke-width:1" shape-rendering="crispEdges" />
    <polyline points="31.501,642.2168 24.501,642.2168" style="fill:none;stroke:black;stroke-width:1" shape-rendering="crispEdges" />
    <polyline points="31.501,575.7566 24.501,575.7566" style="fill:none;stroke:black;stroke-width:1" shape-rendering="crispEdges" />
    <polyline points="31.501,509.2964 24.501,509.2964" style="fill:none;stroke:black;stroke-width:1" shape-rendering="crispEdges" />
    <polyline points="31.501,442.8362 24.501,442.8362" style="fill:none;stroke:black;stroke-width:1" shape-rendering="crispEdges" />
    <polyline points="31.501,376.376 24.501,376.376" style="fill:none;stroke:black;stroke-width:1" shape-rendering="crispEdges" />
    <polyline points="31.501,309.9158 24.501,309.9158" style="fill:none;stroke:black;stroke-width:1" shape-rendering="crispEdges" />
    <polyline points="31.501,243.4556 24.501,243.4556" style="fill:none;stroke:black;stroke-width:1" shape-rendering="crispEdges" />
    <polyline points="31.501,176.9954 24.501,176.9954" style="fill:none;stroke:black;stroke-width:1" shape-rendering="crispEdges" />
    <polyline points="31.501,110.5352 24.501,110.5352" style="fill:none;stroke:black;stroke-width:1" shape-rendering="crispEdges" />
    <polyline points="31.501,44.075 24.501,44.075" style="fill:none;stroke:black;stroke-width:1" shape-rendering="crispEdges" />
  </g>
  <defs>
    <clipPath id="clipPath2">
      <rect x="31.501" y="34.106" width="1834.487" height="1016.841" />
    </clipPath>
  </defs>
  <g clip-path="url(#clipPath2)">
    <polyline points="49.4862,1040.978 274.3008,1040.978 499.1153,708.677 723.9299,1040.978 948.7445,708.677 1173.5591,376.376 1398.3737,708.677 1623.1883,376.376 1848.0028,44.075" style="fill:none;stroke:rgb(78,154,6);stroke-width:2;stroke-linejoin:bevel" />
    <ellipse cx="49.4862" cy="1040.978" rx="3" ry="3" style="fill:rgb(78,154,6);stroke:none;" shape-rendering="geometricPrecision" />
    <ellipse cx="274.3008" cy="1040.978" rx="3" ry="3" style="fill:rgb(78,154,6);stroke:none;" shape-rendering="geometricPrecision" />
    <ellipse cx="499.1153" cy="708.677" rx="3" ry="3" style="fill:rgb(78,154,6);stroke:none;" shape-rendering="geometricPrecision" />
    <ellipse cx="723.9299" cy="1040.978" rx="3" ry="3" style="fill:rgb(78,154,6);stroke:none;" shape-rendering="geometricPrecision" />
    <ellipse cx="948.7445" cy="708.677" rx="3" ry="3" style="fill:rgb(78,154,6);stroke:none;" shape-rendering="geometricPrecision" />
    <ellipse cx="1173.5591" cy="376.376" rx="3" ry="3" style="fill:rgb(78,154,6);stroke:none;" shape-rendering="geometricPrecision" />
    <ellipse cx="1398.3737" cy="708.677" rx="3" ry="3" style="fill:rgb(78,154,6);stroke:none;" shape-rendering="geometricPrecision" />
    <ellipse cx="1623.1883" cy="376.376" rx="3" ry="3" style="fill:rgb(78,154,6);stroke:none;" shape-rendering="geometricPrecision" />
    <ellipse cx="1848.0028" cy="44.075" rx="3" ry="3" style="fill:rgb(78,154,6);stroke:none;" shape-rendering="geometricPrecision" />
  </g>
  <defs>
    <clipPath id="clipPath3">
      <rect x="0" y="0" width="1920" height="1080" />
    </clipPath>
  </defs>
  <g clip-path="url(#clipPath3)">
    <text dominant-baseline="hanging" text-anchor="middle" transform="translate(948.7445,8)" font-family="Segoe UI" font-size="18" font-weight="700" fill="black">LineSeries</text>
    <rect x="31.501" y="34.106" width="1834.487" height="1016.841" style="fill:none;stroke:black;stroke-width:1" shape-rendering="crispEdges" />
  </g>
</svg>